<mxfile host="app.diagrams.net" modified="2021-09-23T10:38:55.992Z" agent="5.0 (Macintosh; Intel Mac OS X 10_15_7) AppleWebKit/537.36 (KHTML, like Gecko) Chrome/93.0.4577.63 Safari/537.36" etag="XTutoIs81Hw8qFZ4Ske4" version="15.1.4" type="github">
  <diagram id="kgpKYQtTHZ0yAKxKKP6v" name="Page-1">
    <mxGraphModel dx="946" dy="534" grid="1" gridSize="10" guides="1" tooltips="1" connect="1" arrows="1" fold="1" page="1" pageScale="1" pageWidth="850" pageHeight="1100" math="0" shadow="0">
      <root>
        <mxCell id="0" />
        <mxCell id="1" parent="0" />
        <mxCell id="3nuBFxr9cyL0pnOWT2aG-1" value=":Friend" style="shape=umlLifeline;perimeter=lifelinePerimeter;container=1;collapsible=0;recursiveResize=0;rounded=0;shadow=0;strokeWidth=1;" parent="1" vertex="1">
          <mxGeometry x="310" y="70" width="100" height="310" as="geometry" />
        </mxCell>
        <mxCell id="3nuBFxr9cyL0pnOWT2aG-2" value="" style="points=[];perimeter=orthogonalPerimeter;rounded=0;shadow=0;strokeWidth=1;" parent="3nuBFxr9cyL0pnOWT2aG-1" vertex="1">
          <mxGeometry x="45" y="110" width="10" height="200" as="geometry" />
        </mxCell>
        <mxCell id="3nuBFxr9cyL0pnOWT2aG-3" value="access()" style="verticalAlign=bottom;startArrow=oval;endArrow=block;startSize=8;shadow=0;strokeWidth=1;" parent="3nuBFxr9cyL0pnOWT2aG-1" target="3nuBFxr9cyL0pnOWT2aG-2" edge="1">
          <mxGeometry relative="1" as="geometry">
            <mxPoint x="-190" y="130" as="sourcePoint" />
          </mxGeometry>
        </mxCell>
        <mxCell id="3nuBFxr9cyL0pnOWT2aG-5" value=":Report Emerg." style="shape=umlLifeline;perimeter=lifelinePerimeter;container=1;collapsible=0;recursiveResize=0;rounded=0;shadow=0;strokeWidth=1;" parent="1" vertex="1">
          <mxGeometry x="530" y="70" width="100" height="300" as="geometry" />
        </mxCell>
        <mxCell id="3nuBFxr9cyL0pnOWT2aG-6" value="" style="points=[];perimeter=orthogonalPerimeter;rounded=0;shadow=0;strokeWidth=1;" parent="3nuBFxr9cyL0pnOWT2aG-5" vertex="1">
          <mxGeometry x="45" y="110" width="10" height="160" as="geometry" />
        </mxCell>
        <mxCell id="3nuBFxr9cyL0pnOWT2aG-7" value="return" style="verticalAlign=bottom;endArrow=open;endSize=8;exitX=0;exitY=0.95;shadow=0;strokeWidth=1;" parent="1" source="3nuBFxr9cyL0pnOWT2aG-6" target="3nuBFxr9cyL0pnOWT2aG-2" edge="1">
          <mxGeometry relative="1" as="geometry">
            <mxPoint x="630" y="226" as="targetPoint" />
          </mxGeometry>
        </mxCell>
        <mxCell id="3nuBFxr9cyL0pnOWT2aG-8" value="Activate()" style="verticalAlign=bottom;endArrow=block;entryX=0;entryY=0;shadow=0;strokeWidth=1;" parent="1" source="3nuBFxr9cyL0pnOWT2aG-2" target="3nuBFxr9cyL0pnOWT2aG-6" edge="1">
          <mxGeometry relative="1" as="geometry">
            <mxPoint x="630" y="150" as="sourcePoint" />
          </mxGeometry>
        </mxCell>
        <mxCell id="0zfhSqMlAeVRX38XhU8a-1" value="Alice&lt;br&gt;Field Officer" style="shape=umlActor;verticalLabelPosition=bottom;verticalAlign=top;html=1;outlineConnect=0;" vertex="1" parent="1">
          <mxGeometry x="100" y="70" width="30" height="60" as="geometry" />
        </mxCell>
        <mxCell id="0zfhSqMlAeVRX38XhU8a-2" value="Bob&lt;br&gt;Field Officer" style="shape=umlActor;verticalLabelPosition=bottom;verticalAlign=top;html=1;outlineConnect=0;" vertex="1" parent="1">
          <mxGeometry x="170" y="70" width="30" height="60" as="geometry" />
        </mxCell>
        <mxCell id="0zfhSqMlAeVRX38XhU8a-6" value="John&lt;br&gt;Dispatcher" style="shape=umlActor;verticalLabelPosition=bottom;verticalAlign=top;html=1;outlineConnect=0;" vertex="1" parent="1">
          <mxGeometry x="680" y="70" width="30" height="60" as="geometry" />
        </mxCell>
        <mxCell id="0zfhSqMlAeVRX38XhU8a-28" value="" style="edgeStyle=orthogonalEdgeStyle;rounded=0;orthogonalLoop=1;jettySize=auto;html=1;startArrow=none;startFill=0;strokeColor=#000000;" edge="1" parent="1" source="0zfhSqMlAeVRX38XhU8a-8" target="0zfhSqMlAeVRX38XhU8a-27">
          <mxGeometry relative="1" as="geometry" />
        </mxCell>
        <mxCell id="0zfhSqMlAeVRX38XhU8a-8" value="" style="points=[];perimeter=orthogonalPerimeter;rounded=0;shadow=0;strokeWidth=1;" vertex="1" parent="1">
          <mxGeometry x="690" y="210" width="10" height="160" as="geometry" />
        </mxCell>
        <mxCell id="0zfhSqMlAeVRX38XhU8a-11" value="" style="endArrow=none;dashed=1;html=1;exitX=0.45;exitY=-0.026;exitDx=0;exitDy=0;exitPerimeter=0;" edge="1" parent="1" source="0zfhSqMlAeVRX38XhU8a-8">
          <mxGeometry width="50" height="50" relative="1" as="geometry">
            <mxPoint x="695" y="200" as="sourcePoint" />
            <mxPoint x="695" y="160" as="targetPoint" />
          </mxGeometry>
        </mxCell>
        <mxCell id="0zfhSqMlAeVRX38XhU8a-13" value="" style="edgeStyle=orthogonalEdgeStyle;rounded=0;orthogonalLoop=1;jettySize=auto;html=1;startArrow=none;startFill=0;" edge="1" parent="1" source="3nuBFxr9cyL0pnOWT2aG-6" target="0zfhSqMlAeVRX38XhU8a-8">
          <mxGeometry relative="1" as="geometry">
            <Array as="points">
              <mxPoint x="670" y="250" />
              <mxPoint x="670" y="250" />
            </Array>
          </mxGeometry>
        </mxCell>
        <mxCell id="0zfhSqMlAeVRX38XhU8a-22" value="Send Description()" style="edgeLabel;html=1;align=center;verticalAlign=middle;resizable=0;points=[];" vertex="1" connectable="0" parent="0zfhSqMlAeVRX38XhU8a-13">
          <mxGeometry x="0.5778" y="-1" relative="1" as="geometry">
            <mxPoint x="-32" y="-11" as="offset" />
          </mxGeometry>
        </mxCell>
        <mxCell id="0zfhSqMlAeVRX38XhU8a-14" value="" style="edgeStyle=orthogonalEdgeStyle;rounded=0;orthogonalLoop=1;jettySize=auto;html=1;startArrow=none;startFill=0;" edge="1" parent="1">
          <mxGeometry relative="1" as="geometry">
            <mxPoint x="585" y="230" as="sourcePoint" />
            <mxPoint x="690" y="230" as="targetPoint" />
            <Array as="points">
              <mxPoint x="670" y="230" />
              <mxPoint x="670" y="230" />
            </Array>
          </mxGeometry>
        </mxCell>
        <mxCell id="0zfhSqMlAeVRX38XhU8a-15" value="" style="edgeStyle=orthogonalEdgeStyle;rounded=0;orthogonalLoop=1;jettySize=auto;html=1;startArrow=none;startFill=0;" edge="1" parent="1">
          <mxGeometry relative="1" as="geometry">
            <mxPoint x="585" y="270" as="sourcePoint" />
            <mxPoint x="690" y="270" as="targetPoint" />
            <Array as="points">
              <mxPoint x="670" y="270" />
              <mxPoint x="670" y="270" />
            </Array>
          </mxGeometry>
        </mxCell>
        <mxCell id="0zfhSqMlAeVRX38XhU8a-16" value="" style="edgeStyle=orthogonalEdgeStyle;rounded=0;orthogonalLoop=1;jettySize=auto;html=1;startArrow=none;startFill=0;" edge="1" parent="1">
          <mxGeometry relative="1" as="geometry">
            <mxPoint x="585" y="310" as="sourcePoint" />
            <mxPoint x="690" y="310" as="targetPoint" />
            <Array as="points">
              <mxPoint x="670" y="310" />
              <mxPoint x="670" y="310" />
            </Array>
          </mxGeometry>
        </mxCell>
        <mxCell id="0zfhSqMlAeVRX38XhU8a-17" value="" style="edgeStyle=orthogonalEdgeStyle;rounded=0;orthogonalLoop=1;jettySize=auto;html=1;startArrow=none;startFill=0;" edge="1" parent="1">
          <mxGeometry relative="1" as="geometry">
            <mxPoint x="585" y="289.58" as="sourcePoint" />
            <mxPoint x="690" y="289.58" as="targetPoint" />
            <Array as="points">
              <mxPoint x="670" y="289.58" />
              <mxPoint x="670" y="289.58" />
            </Array>
          </mxGeometry>
        </mxCell>
        <mxCell id="0zfhSqMlAeVRX38XhU8a-18" value="" style="edgeStyle=orthogonalEdgeStyle;rounded=0;orthogonalLoop=1;jettySize=auto;html=1;startArrow=none;startFill=0;" edge="1" parent="1">
          <mxGeometry relative="1" as="geometry">
            <mxPoint x="585" y="330" as="sourcePoint" />
            <mxPoint x="690" y="330" as="targetPoint" />
            <Array as="points">
              <mxPoint x="670" y="330" />
              <mxPoint x="670" y="330" />
            </Array>
          </mxGeometry>
        </mxCell>
        <mxCell id="0zfhSqMlAeVRX38XhU8a-20" value="&lt;span style=&quot;color: rgb(0 , 0 , 0) ; font-family: &amp;#34;helvetica&amp;#34; ; font-size: 11px ; font-style: normal ; font-weight: 400 ; letter-spacing: normal ; text-align: center ; text-indent: 0px ; text-transform: none ; word-spacing: 0px ; background-color: rgb(255 , 255 , 255) ; display: inline ; float: none&quot;&gt;Send Address()&lt;/span&gt;" style="text;whiteSpace=wrap;html=1;" vertex="1" parent="1">
          <mxGeometry x="590" y="205" width="80" height="30" as="geometry" />
        </mxCell>
        <mxCell id="0zfhSqMlAeVRX38XhU8a-23" value="&lt;font style=&quot;font-size: 11px&quot;&gt;Send Emerg. Level()&lt;/font&gt;" style="text;html=1;align=center;verticalAlign=middle;resizable=0;points=[];autosize=1;strokeColor=none;fillColor=none;" vertex="1" parent="1">
          <mxGeometry x="578" y="250" width="120" height="20" as="geometry" />
        </mxCell>
        <mxCell id="0zfhSqMlAeVRX38XhU8a-24" value="&lt;font style=&quot;font-size: 11px&quot;&gt;Req. Paramedic ()&lt;/font&gt;" style="text;html=1;align=center;verticalAlign=middle;resizable=0;points=[];autosize=1;strokeColor=none;fillColor=none;" vertex="1" parent="1">
          <mxGeometry x="585" y="290" width="100" height="20" as="geometry" />
        </mxCell>
        <mxCell id="0zfhSqMlAeVRX38XhU8a-25" value="&lt;font style=&quot;font-size: 11px&quot;&gt;Req. Fire Unit&lt;/font&gt;" style="text;html=1;align=center;verticalAlign=middle;resizable=0;points=[];autosize=1;strokeColor=none;fillColor=none;" vertex="1" parent="1">
          <mxGeometry x="585" y="270" width="80" height="20" as="geometry" />
        </mxCell>
        <mxCell id="0zfhSqMlAeVRX38XhU8a-26" value="&lt;font style=&quot;font-size: 11px&quot;&gt;Confirm&lt;/font&gt;" style="text;html=1;align=center;verticalAlign=middle;resizable=0;points=[];autosize=1;strokeColor=none;fillColor=none;" vertex="1" parent="1">
          <mxGeometry x="584" y="310" width="50" height="20" as="geometry" />
        </mxCell>
        <mxCell id="0zfhSqMlAeVRX38XhU8a-29" style="edgeStyle=orthogonalEdgeStyle;rounded=0;orthogonalLoop=1;jettySize=auto;html=1;startArrow=none;startFill=0;strokeColor=#000000;" edge="1" parent="1" source="0zfhSqMlAeVRX38XhU8a-27">
          <mxGeometry relative="1" as="geometry">
            <mxPoint x="370" y="410" as="targetPoint" />
            <Array as="points">
              <mxPoint x="380" y="410" />
            </Array>
          </mxGeometry>
        </mxCell>
        <mxCell id="0zfhSqMlAeVRX38XhU8a-27" value="&lt;font style=&quot;font-size: 11px&quot;&gt;Review&lt;/font&gt;" style="ellipse;whiteSpace=wrap;html=1;rounded=0;shadow=0;strokeWidth=1;" vertex="1" parent="1">
          <mxGeometry x="675" y="400" width="40" height="20" as="geometry" />
        </mxCell>
        <mxCell id="0zfhSqMlAeVRX38XhU8a-31" value="" style="endArrow=none;dashed=1;html=1;strokeColor=#000000;" edge="1" parent="1">
          <mxGeometry width="50" height="50" relative="1" as="geometry">
            <mxPoint x="359.58" y="442.5" as="sourcePoint" />
            <mxPoint x="359.58" y="377.5" as="targetPoint" />
          </mxGeometry>
        </mxCell>
        <mxCell id="0zfhSqMlAeVRX38XhU8a-32" value="Acknowledge()" style="text;html=1;align=center;verticalAlign=middle;resizable=0;points=[];autosize=1;strokeColor=none;fillColor=none;" vertex="1" parent="1">
          <mxGeometry x="460" y="415" width="90" height="20" as="geometry" />
        </mxCell>
      </root>
    </mxGraphModel>
  </diagram>
</mxfile>
